<svg width="430" height="82" viewBox="0 0 430 82" fill="none" xmlns="http://www.w3.org/2000/svg">
<rect width="430" height="82" fill="white"/>
<path d="M22 34.1035H38" stroke="#595667" stroke-width="1.5" stroke-linecap="round" stroke-linejoin="round"/>
<path d="M22 47.8965H38" stroke="#595667" stroke-width="1.5" stroke-linecap="round" stroke-linejoin="round"/>
<path d="M22 41H38" stroke="#595667" stroke-width="1.5" stroke-linecap="round" stroke-linejoin="round"/>
<mask id="path-4-inside-1_1_900" fill="white">
<path d="M157.403 41.7628C157.013 41.3722 157.013 40.7391 157.403 40.3486L158.371 39.3804C160.715 37.0372 164.514 37.0372 166.857 39.3804L167.825 40.3486C168.215 40.7391 168.215 41.3722 167.825 41.7628L166.857 42.731C164.514 45.0741 160.715 45.0741 158.371 42.731L157.403 41.7628Z"/>
</mask>
<path d="M157.403 41.7628C157.013 41.3722 157.013 40.7391 157.403 40.3486L158.371 39.3804C160.715 37.0372 164.514 37.0372 166.857 39.3804L167.825 40.3486C168.215 40.7391 168.215 41.3722 167.825 41.7628L166.857 42.731C164.514 45.0741 160.715 45.0741 158.371 42.731L157.403 41.7628Z" stroke="#3A3845" stroke-width="4" mask="url(#path-4-inside-1_1_900)"/>
<mask id="path-5-inside-2_1_900" fill="white">
<path d="M171.328 41.7628C170.938 41.3722 170.938 40.7391 171.328 40.3486L172.296 39.3804C174.639 37.0372 178.438 37.0372 180.782 39.3804L181.75 40.3486C182.14 40.7391 182.14 41.3722 181.75 41.7628L180.782 42.731C178.438 45.0741 174.639 45.0741 172.296 42.731L171.328 41.7628Z"/>
</mask>
<path d="M171.328 41.7628C170.938 41.3722 170.938 40.7391 171.328 40.3486L172.296 39.3804C174.639 37.0372 178.438 37.0372 180.782 39.3804L181.75 40.3486C182.14 40.7391 182.14 41.3722 181.75 41.7628L180.782 42.731C178.438 45.0741 174.639 45.0741 172.296 42.731L171.328 41.7628Z" stroke="#3A3845" stroke-width="4" mask="url(#path-5-inside-2_1_900)"/>
<mask id="path-6-inside-3_1_900" fill="white">
<path d="M168.869 28.8824C169.26 28.4919 169.893 28.4919 170.283 28.8824L171.251 29.8506C173.595 32.1938 173.595 35.9927 171.251 38.3359L170.283 39.3041C169.893 39.6946 169.26 39.6946 168.869 39.3041L167.901 38.3359C165.558 35.9927 165.558 32.1937 167.901 29.8506L168.869 28.8824Z"/>
</mask>
<path d="M168.869 28.8824C169.26 28.4919 169.893 28.4919 170.283 28.8824L171.251 29.8506C173.595 32.1938 173.595 35.9927 171.251 38.3359L170.283 39.3041C169.893 39.6946 169.26 39.6946 168.869 39.3041L167.901 38.3359C165.558 35.9927 165.558 32.1937 167.901 29.8506L168.869 28.8824Z" stroke="#3A3845" stroke-width="4" mask="url(#path-6-inside-3_1_900)"/>
<mask id="path-7-inside-4_1_900" fill="white">
<path d="M168.778 42.1153C169.168 41.7248 169.802 41.7248 170.192 42.1153L171.16 43.0835C173.503 45.4267 173.503 49.2257 171.16 51.5688L170.192 52.537C169.802 52.9275 169.168 52.9275 168.778 52.537L167.81 51.5688C165.467 49.2257 165.467 45.4267 167.81 43.0835L168.778 42.1153Z"/>
</mask>
<path d="M168.778 42.1153C169.168 41.7248 169.802 41.7248 170.192 42.1153L171.16 43.0835C173.503 45.4267 173.503 49.2257 171.16 51.5688L170.192 52.537C169.802 52.9275 169.168 52.9275 168.778 52.537L167.81 51.5688C165.467 49.2257 165.467 45.4267 167.81 43.0835L168.778 42.1153Z" stroke="#3A3845" stroke-width="4" mask="url(#path-7-inside-4_1_900)"/>
<path d="M172.799 25.4556C173.742 25.3773 174.523 25.3924 175.237 25.646C175.677 25.8021 176.019 26.1629 176.485 26.8042C176.895 27.3674 177.456 28.2483 178.271 28.8228C179.163 29.4519 180.365 29.8787 181.215 30.2397C182.194 30.6556 182.738 30.9904 182.965 31.3696C183.278 31.8924 183.44 32.5502 183.59 33.4233C183.731 34.2466 183.864 35.2886 184.171 36.3032C184.447 37.2159 185.033 38.1773 185.426 38.9175C185.865 39.7451 186.133 40.4029 186.133 40.9995C186.133 41.562 185.892 42.07 185.465 42.7437C185.08 43.3505 184.461 44.1929 184.171 45.1519C183.853 46.203 183.796 47.4068 183.693 48.3022C183.581 49.2821 183.415 50.0081 183.016 50.5542C182.62 51.0958 181.977 51.4793 181.081 51.8901C180.266 52.2641 179.148 52.6913 178.271 53.3101C177.469 53.8754 176.91 54.7065 176.5 55.2417C176.041 55.84 175.696 56.1911 175.237 56.354C174.523 56.6076 173.742 56.6227 172.799 56.5444C171.924 56.4718 170.773 56.2964 169.692 56.2964C168.61 56.2964 167.458 56.4718 166.583 56.5444C165.64 56.6227 164.859 56.6076 164.146 56.354C163.497 56.1234 162.969 55.7124 162.387 55.1597C161.847 54.6465 161.167 53.9059 160.404 53.3296C159.66 52.7667 158.733 52.2998 158.05 51.9019C157.307 51.4691 156.741 51.066 156.367 50.5542C155.938 49.967 155.702 49.193 155.51 48.2212C155.333 47.3271 155.18 46.1484 154.878 45.1519C154.604 44.2473 154.108 43.4284 153.796 42.8218C153.46 42.1673 153.25 41.6242 153.25 40.9995C153.25 40.4028 153.518 39.7452 153.957 38.9175C154.35 38.1773 154.936 37.216 155.212 36.3032C155.527 35.2634 155.587 34.2041 155.688 33.4438C155.795 32.6359 155.951 32.0153 156.367 31.4458C156.73 30.9492 157.278 30.5806 158.021 30.1802C158.703 29.8127 159.642 29.3795 160.404 28.8032C161.183 28.2151 161.863 27.4329 162.406 26.8872C162.994 26.2967 163.515 25.87 164.146 25.646C164.859 25.3924 165.64 25.3773 166.583 25.4556C167.458 25.5282 168.61 25.7036 169.692 25.7036C170.773 25.7036 171.924 25.5282 172.799 25.4556Z" stroke="#3A3845" stroke-width="2"/>
<path d="M214.764 32.1196C214.866 32.1196 214.964 32.1681 215.036 32.2545C215.109 32.3408 215.15 32.4581 215.151 32.5808V49.2683C215.151 49.391 215.11 49.5087 215.039 49.5959C214.967 49.683 214.869 49.7326 214.767 49.7337H212.878C212.776 49.7326 212.679 49.683 212.607 49.5959C212.535 49.5087 212.495 49.391 212.495 49.2683V38.4131C212.346 38.5584 212.193 38.6982 212.035 38.8323C211.585 39.2097 211.129 39.5283 210.686 39.8386C210.243 40.1489 209.951 40.3921 209.602 40.6394C208.95 41.0928 208.382 41.7026 207.933 42.4311C207.485 43.1596 207.165 43.9911 206.995 44.8742C206.976 44.977 206.928 45.0688 206.86 45.1344C206.791 45.2 206.706 45.2354 206.619 45.2348H204.817C204.729 45.2354 204.644 45.2 204.576 45.1344C204.507 45.0688 204.46 44.977 204.44 44.8742C204.27 43.99 203.951 43.1574 203.502 42.4282C203.053 41.6989 202.484 41.0886 201.83 40.6352C201.482 40.3879 201.133 40.1153 200.746 39.8344C200.359 39.5535 199.847 39.2055 199.397 38.8281C199.239 38.6968 199.086 38.557 198.937 38.4089V49.2683C198.937 49.391 198.897 49.5087 198.825 49.5959C198.753 49.683 198.656 49.7326 198.554 49.7337H196.668C196.566 49.7326 196.469 49.683 196.397 49.5959C196.325 49.5087 196.285 49.391 196.285 49.2683V32.585C196.285 32.4616 196.326 32.3432 196.398 32.2559C196.471 32.1687 196.569 32.1196 196.672 32.1196H198.536C198.627 32.1211 198.715 32.161 198.784 32.2323C198.852 32.3036 198.898 32.4018 198.913 32.5096C199.017 33.323 199.415 35.2223 200.868 36.2831C201.251 36.5556 201.631 36.8617 202.05 37.1594C202.468 37.4571 202.876 37.7296 203.273 38.065C204.084 38.714 204.81 39.5054 205.427 40.413C205.462 40.4662 205.506 40.5093 205.557 40.5388C205.608 40.5684 205.663 40.5838 205.72 40.5838C205.776 40.5838 205.832 40.5684 205.882 40.5388C205.933 40.5093 205.977 40.4662 206.012 40.413C206.627 39.5042 207.352 38.7114 208.163 38.0609C208.577 37.7254 209.01 37.4235 209.39 37.1552C209.769 36.8869 210.195 36.5556 210.568 36.2831C212.024 35.2391 212.422 33.3481 212.526 32.5096C212.541 32.4018 212.587 32.3036 212.656 32.2323C212.724 32.161 212.812 32.1211 212.903 32.1196H214.764Z" fill="#3A3845"/>
<path d="M234.874 40.9266C234.874 45.7789 231.028 49.7337 226.299 49.7337C221.569 49.7337 217.723 45.7831 217.723 40.9266C217.723 36.0702 221.569 32.1196 226.299 32.1196C231.028 32.1196 234.874 36.0702 234.874 40.9266ZM226.299 35.3195C223.058 35.3195 220.422 37.8358 220.422 40.9266C220.422 44.0175 223.058 46.5128 226.299 46.5128C229.539 46.5128 232.178 43.9965 232.178 40.9099C232.178 37.8232 229.539 35.3195 226.299 35.3195Z" fill="#3A3845"/>
<path d="M254.597 40.9266C254.597 45.7789 250.559 49.7337 245.593 49.7337C240.627 49.7337 236.589 45.7831 236.589 40.9266C236.589 36.0702 240.627 32.1196 245.593 32.1196C250.559 32.1196 254.597 36.0702 254.597 40.9266ZM245.593 35.3195C242.19 35.3195 239.419 37.8358 239.419 40.9266C239.419 44.0175 242.19 46.5128 245.593 46.5128C248.995 46.5128 251.763 43.9965 251.763 40.9099C251.763 37.8232 248.984 35.3195 245.593 35.3195Z" fill="#3A3845"/>
<path d="M269.942 40.7966V32.5809C269.942 32.5204 269.952 32.4604 269.971 32.4044C269.991 32.3484 270.019 32.2976 270.055 32.2547C270.09 32.2119 270.133 32.1779 270.179 32.1547C270.226 32.1316 270.276 32.1196 270.326 32.1196H272.22C272.271 32.1196 272.321 32.1316 272.368 32.1547C272.414 32.1779 272.457 32.2119 272.492 32.2547C272.528 32.2976 272.556 32.3484 272.576 32.4044C272.595 32.4604 272.605 32.5204 272.605 32.5809V49.2723C272.605 49.3329 272.595 49.3929 272.576 49.4489C272.556 49.5049 272.528 49.5557 272.492 49.5985C272.457 49.6414 272.414 49.6754 272.368 49.6985C272.321 49.7217 272.271 49.7337 272.22 49.7337H270.344C270.293 49.7337 270.243 49.7217 270.197 49.6985C270.15 49.6754 270.108 49.6414 270.072 49.5985C270.036 49.5557 270.008 49.5049 269.989 49.4489C269.969 49.3929 269.96 49.3329 269.96 49.2723V47.9597C269.961 47.5488 269.885 47.1428 269.736 46.7728C269.18 45.4224 267.744 42.9229 264.389 41.3922C262.972 40.7636 261.645 39.8752 260.454 38.7584C260.398 38.7033 260.33 38.6686 260.258 38.6583C260.186 38.6481 260.113 38.6628 260.047 38.7007C259.982 38.7386 259.927 38.7981 259.889 38.8722C259.851 38.9464 259.831 39.032 259.832 39.1191V49.2723C259.832 49.3947 259.792 49.512 259.72 49.5985C259.648 49.6851 259.55 49.7337 259.448 49.7337H257.554C257.452 49.7337 257.354 49.6851 257.282 49.5985C257.21 49.512 257.169 49.3947 257.169 49.2723V32.5809C257.169 32.4586 257.21 32.3413 257.282 32.2547C257.354 32.1682 257.452 32.1196 257.554 32.1196H259.395C259.472 32.1215 259.546 32.1508 259.608 32.2039C259.671 32.257 259.718 32.3314 259.745 32.4174C260.049 33.4071 261.314 36.6112 265.315 38.3978C266.763 39.0333 268.11 39.9624 269.296 41.1447C269.351 41.2026 269.42 41.24 269.492 41.2526C269.565 41.2652 269.64 41.2524 269.707 41.2157C269.774 41.179 269.83 41.12 269.87 41.0458C269.91 40.9715 269.931 40.885 269.932 40.7966H269.942Z" fill="#3A3845"/>
<path d="M275.177 47.9723C275.177 47.6238 275.253 47.2831 275.394 46.9933C275.536 46.7036 275.737 46.4778 275.972 46.3446C276.207 46.2114 276.466 46.1768 276.716 46.2451C276.965 46.3134 277.195 46.4816 277.374 46.7284C277.554 46.9751 277.676 47.2894 277.726 47.6313C277.775 47.9733 277.749 48.3276 277.651 48.6494C277.553 48.9712 277.388 49.246 277.176 49.439C276.964 49.632 276.715 49.7346 276.461 49.7337C276.292 49.7337 276.125 49.6882 275.969 49.5996C275.813 49.511 275.671 49.3812 275.552 49.2176C275.433 49.054 275.339 48.8597 275.274 48.6461C275.21 48.4324 275.177 48.2034 275.177 47.9723Z" fill="#3A3845"/>
<path d="M394.984 35.541H408.558L406.625 43.7538C406.374 44.8201 405.423 45.5738 404.327 45.5738H399.457C398.386 45.5738 397.449 44.8526 397.175 43.8172L394.984 35.541ZM394.984 35.541L394.099 32H391.443" stroke="#595667" stroke-width="1.5" stroke-linecap="round" stroke-linejoin="round"/>
<path d="M397.641 49.9998C398.293 49.9998 398.821 49.4714 398.821 48.8195C398.821 48.1676 398.293 47.6392 397.641 47.6392C396.989 47.6392 396.46 48.1676 396.46 48.8195C396.46 49.4714 396.989 49.9998 397.641 49.9998Z" fill="#595667"/>
<path d="M405.904 49.9998C406.555 49.9998 407.084 49.4714 407.084 48.8195C407.084 48.1676 406.555 47.6392 405.904 47.6392C405.252 47.6392 404.723 48.1676 404.723 48.8195C404.723 49.4714 405.252 49.9998 405.904 49.9998Z" fill="#595667"/>
</svg>
